<svg viewBox="0 0 100 100" xmlns="http://www.w3.org/2000/svg">
  <defs>
    <radialGradient id="fireGradient" cx="50%" cy="70%" r="60%">
      <stop offset="0%" style="stop-color:#ff6b35;stop-opacity:1" />
      <stop offset="30%" style="stop-color:#f7931e;stop-opacity:1" />
      <stop offset="70%" style="stop-color:#ffd23f;stop-opacity:1" />
      <stop offset="100%" style="stop-color:#ff6b35;stop-opacity:0.8" />
    </radialGradient>
    <radialGradient id="smokeGradient" cx="50%" cy="30%" r="40%">
      <stop offset="0%" style="stop-color:#666;stop-opacity:0.3" />
      <stop offset="100%" style="stop-color:#333;stop-opacity:0.1" />
    </radialGradient>
  </defs>
  
  <!-- Background circle -->
  <circle cx="50" cy="50" r="48" fill="#1a1a1a" stroke="#ff6b35" stroke-width="2"/>
  
  <!-- Fire base -->
  <ellipse cx="50" cy="75" rx="25" ry="12" fill="url(#fireGradient)" opacity="0.9"/>
  
  <!-- Main flame -->
  <path d="M35 75 Q30 65 35 55 Q40 45 50 40 Q60 45 65 55 Q70 65 65 75 Q60 80 50 78 Q40 80 35 75" 
        fill="url(#fireGradient)" opacity="0.95"/>
  
  <!-- Inner flame -->
  <path d="M42 70 Q38 62 42 55 Q45 50 50 48 Q55 50 58 55 Q62 62 58 70 Q55 73 50 72 Q45 73 42 70" 
        fill="#ffd23f" opacity="0.8"/>
  
  <!-- Flame tips -->
  <path d="M45 50 Q42 45 45 40 Q48 35 50 38 Q52 35 55 40 Q58 45 55 50 Q52 48 50 50 Q48 48 45 50" 
        fill="#fff2a1" opacity="0.7"/>
  
  <!-- Smoke wisps -->
  <path d="M45 35 Q40 30 45 25 Q50 20 48 15 Q52 18 55 25 Q60 30 55 35" 
        fill="url(#smokeGradient)" opacity="0.4"/>
  
  <!-- Alert triangle overlay -->
  <path d="M50 25 L40 42 L60 42 Z" fill="none" stroke="#ff6b35" stroke-width="2" opacity="0.6"/>
  <circle cx="50" cy="38" r="1.5" fill="#ff6b35"/>
  <path d="M50 32 L50 36" stroke="#ff6b35" stroke-width="2" stroke-linecap="round"/>
</svg>
